<svg width="73" height="66" viewBox="0 0 73 66" fill="none" xmlns="http://www.w3.org/2000/svg">
<path d="M10.776 65.64C7.36267 65.64 4.78133 64.68 3.032 62.76C1.28267 60.7973 0.408 58.0027 0.408 54.376V51.816H7.064V54.888C7.064 57.7893 8.28 59.24 10.712 59.24C11.9067 59.24 12.8027 58.8987 13.4 58.216C14.04 57.4907 14.36 56.3387 14.36 54.76C14.36 52.8827 13.9333 51.24 13.08 49.832C12.2267 48.3813 10.648 46.6533 8.344 44.648C5.44267 42.088 3.416 39.784 2.264 37.736C1.112 35.6453 0.536 33.2987 0.536 30.696C0.536 27.1547 1.432 24.424 3.224 22.504C5.016 20.5413 7.61867 19.56 11.032 19.56C14.4027 19.56 16.9413 20.5413 18.648 22.504C20.3973 24.424 21.272 27.1973 21.272 30.824V32.68H14.616V30.376C14.616 28.84 14.3173 27.7307 13.72 27.048C13.1227 26.3227 12.248 25.96 11.096 25.96C8.74933 25.96 7.576 27.3893 7.576 30.248C7.576 31.8693 8.00267 33.384 8.856 34.792C9.752 36.2 11.352 37.9067 13.656 39.912C16.6 42.472 18.6267 44.7973 19.736 46.888C20.8453 48.9787 21.4 51.432 21.4 54.248C21.4 57.9173 20.4827 60.7333 18.648 62.696C16.856 64.6587 14.232 65.64 10.776 65.64ZM31.969 20.2H41.505L48.801 65H41.761L40.481 56.104V56.232H32.481L31.201 65H24.673L31.969 20.2ZM39.649 50.152L36.513 28.008H36.385L33.313 50.152H39.649ZM53.4965 20.2H72.6965V26.6H60.5365V38.44H70.2005V44.84H60.5365V58.6H72.6965V65H53.4965V20.2Z" fill="#006A70"/>
<path d="M28.3333 15.3767V20.0433L36.5 24.5L44.6667 20.0433V15.3767L36.5 19.8333L28.3333 15.3767ZM36.5 3.5L23.6667 10.5L36.5 17.5L47 11.7717V19.8333H49.3333V10.5L36.5 3.5Z" fill="#005470"/>
</svg>
